{"accessors":[{"bufferView":0,"componentType":5123,"count":3870,"max":[3869],"min":[0],"name":"buffer-0-accessor-indices-buffer-0-mesh-0","type":"SCALAR"},{"bufferView":2,"componentType":5126,"count":3870,"max":[2.639271020889282,10.21140098571777,6.825132846832275],"min":[-2.639271020889282,0,-6.729043006896973],"name":"buffer-0-accessor-position-buffer-0-mesh-0","type":"VEC3"},{"bufferView":2,"byteOffset":46440,"componentType":5126,"count":3870,"max":[1,0.9959959983825684,0.999966025352478],"min":[-1,-1,-0.9989500045776367],"name":"buffer-0-accessor-normal-buffer-0-mesh-0","type":"VEC3"},{"bufferView":1,"componentType":5126,"count":3870,"max":[0.9878929853439331,0],"min":[0,-0.9640060067176819],"name":"buffer-0-accessor-texcoord-buffer-0-mesh-0","type":"VEC2"},{"bufferView":3,"componentType":5126,"count":0,"max":[0,0,0,0],"min":[0,0,0,0],"name":"buffer-0-accessor-color-buffer-0-mesh-0","type":"VEC4"}],"asset":{"generator":"Obj2GltfConverter","version":"2.0"},"bufferViews":[{"buffer":0,"byteLength":7740,"byteStride":0,"name":"buffer-0-bufferview-ushort","target":34963},{"buffer":0,"byteLength":30960,"byteOffset":7744,"byteStride":8,"name":"buffer-0-bufferview-vec2","target":34962},{"buffer":0,"byteLength":92880,"byteOffset":38712,"byteStride":12,"name":"buffer-0-bufferview-vec3","target":34962},{"buffer":0,"byteLength":1,"name":"buffer-0-bufferview-vec4"}],"buffers":[{"byteLength":131600,"name":"buffer-0","uri":"data:application/octet-stream;base64,"}],"images":[{"mimeType":"image/png","name":"AnkoleLonghornCattle_mat-image","uri":"data:application/octet-stream;base64,"}],"materials":[{"doubleSided":true,"name":"AnkoleLonghornCattle_mat","pbrMetallicRoughness":{"baseColorFactor":[0.5,0.5,0.5,1],"baseColorTexture":{"index":0},"metallicFactor":0,"roughnessFactor":0.9699476628648295}}],"meshes":[{"name":"buffer-0-mesh-0","primitives":[{"attributes":{"NORMAL":2,"POSITION":1,"TEXCOORD_0":3},"indices":0,"material":0}]}],"nodes":[{"mesh":0,"name":"node-0"}],"samplers":[{"name":"AnkoleLonghornCattle_mat-sampler","wrapS":10497,"wrapT":10497}],"scenes":[{"name":"scene-0","nodes":[0]}],"textures":[{"name":"AnkoleLonghornCattle_mat-texture","sampler":0,"source":0}]}